<svg width="297" height="298" viewBox="0 0 297 298" fill="none" xmlns="http://www.w3.org/2000/svg">
<path d="M172.258 155.717C169.941 162.529 167.926 169.503 164.89 176.569C163.852 179.4 162.442 182.08 160.697 184.539C160.164 185.119 159.654 185.698 159.075 186.254C158.365 186.852 157.587 187.365 156.758 187.783C155.017 188.702 153.011 188.989 151.082 188.594C149.421 188.209 147.883 187.412 146.61 186.277C145.583 185.424 144.637 184.478 143.784 183.45C140.759 179.709 137.965 175.786 135.419 171.704C133.103 168.228 130.786 164.869 128.168 161.741C126.596 159.76 124.893 157.887 123.07 156.134C121.569 154.511 119.736 153.231 117.695 152.381C116.768 152.172 116.212 150.898 117.95 149.6C119.129 148.927 120.504 148.681 121.842 148.905C123.541 149.144 125.143 149.841 126.476 150.921C130.812 154.643 134.602 158.956 137.736 163.734C140.887 168.182 143.76 172.769 146.749 176.986C147.604 178.204 148.574 179.337 149.645 180.369C150.328 181.157 151.219 181.735 152.217 182.037C152.958 182.037 153.236 182.037 154.024 181.319C154.895 180.382 155.607 179.31 156.133 178.145C157.627 175.027 158.874 171.796 159.863 168.483L163.083 158.057C164.497 153.632 165.794 149.392 167.3 145.059C169.567 138.435 172.364 132.004 175.664 125.829C178.126 120.806 181.242 116.132 184.932 111.928C185.773 111.001 186.663 110.12 187.596 109.286C191.326 106.298 193.134 106.228 195.01 107.78C195.451 108.115 195.862 108.487 196.238 108.892C197.373 110.329 196.516 112.345 194.524 114.268C191.537 117.257 188.881 120.558 186.6 124.115C184.12 127.846 181.936 131.766 180.066 135.838C177.137 142.274 174.622 148.891 172.536 155.648L172.258 155.717Z" fill="#009F57"/>
<path d="M271.911 148.629C271.911 165.588 246.726 176.432 239.474 190.681C231.921 205.254 237.714 231.875 224.762 241.791C211.811 251.708 187.692 239.15 171.473 242.625C155.834 246.008 138.735 267.509 122.378 263.084C110.794 259.979 109.38 235.049 99.8347 228.562C90.2891 222.075 66.4945 229.79 59.4279 220.522C52.3614 211.255 66.0774 190.403 62.2546 179.397C58.4317 168.392 34.7529 160.584 34.7529 148.629C34.7529 131.507 60.0072 120.826 67.6066 106.925C75.3682 92.5598 70.2479 65.8922 83.5469 56.2539C96.8459 46.6156 120.756 59.7524 136.836 56.2539C152.567 52.8249 169.272 30.907 185.491 34.5445C197.075 37.1163 198.882 61.9535 208.358 68.4871C217.835 75.0208 241.467 67.6531 248.325 77.0829C255.183 86.5126 240.957 106.901 244.664 117.93C248.371 128.958 271.911 136.998 271.911 148.629Z" stroke="#009F57" stroke-width="6.95071" stroke-miterlimit="10"/>
<path d="M118.508 262.226C105.765 259.214 102.845 233.681 92.8363 227.681C81.9005 221.124 57.8742 229.998 50.3443 220.591C42.8143 211.184 56.345 189.243 52.4063 177.566C48.4676 165.889 24.3486 157.502 24.3486 144.921C24.3486 127.15 50.6223 115.728 59.1022 100.668C67.582 85.6083 63.2726 57.4116 77.6374 47.4953C92.0022 37.5789 116.422 51.5267 133.706 49.3256C150.411 47.2172 170.985 27.5467 187.876 34.9608" stroke="#009F57" stroke-width="6.95071" stroke-miterlimit="10"/>
<path d="M229.211 60.376C227.914 60.4918 226.709 60.6077 225.458 60.8394C224.207 61.071 222.793 61.3259 221.287 61.4417C220.12 61.5814 218.938 61.5266 217.789 61.2796C216.684 61.0038 215.661 60.4721 214.8 59.7272C214.029 59.0135 213.372 58.1852 212.854 57.2713C211.999 55.6235 211.39 53.8594 211.047 52.0351C210.722 50.5291 210.398 49.0463 209.981 47.6794C209.43 46.0175 208.692 44.4239 207.78 42.9297C207.502 42.4663 207.965 41.9798 208.845 41.9103C209.414 41.8723 209.982 41.9904 210.488 42.2517C210.995 42.513 211.42 42.9077 211.718 43.3931C214.035 47.3782 214.337 51.4559 215.425 54.6069C215.713 55.5223 216.27 56.3298 217.024 56.9238C217.701 57.4203 218.504 57.7173 219.341 57.781C221.867 57.7288 224.382 57.4261 226.848 56.8775C228.516 56.6689 230.184 56.5068 231.875 56.4141C234.426 56.3057 236.982 56.3831 239.521 56.6458C241.481 56.7757 243.43 57.0233 245.36 57.3872C245.783 57.4386 246.201 57.5239 246.611 57.642C248.163 58.0822 248.511 58.6151 248.58 59.4724C248.601 59.6571 248.601 59.8437 248.58 60.0284C248.58 60.5845 247.769 61.0015 246.611 60.9784C243.205 60.8162 239.938 60.376 236.625 60.2138C234.119 60.1072 231.608 60.2079 229.118 60.515L229.211 60.376Z" fill="#009F57"/>
<path d="M81.4379 235.836C84.2451 236.363 86.8059 237.786 88.7362 239.891C89.4049 240.609 90.0096 241.384 90.5433 242.208C92.1193 245.053 93.4449 248.03 94.5052 251.104L96.0344 255.043C96.7538 256.693 97.3652 258.388 97.8648 260.117C98.166 261.206 96.0807 260.511 95.2235 258.611C93.7175 255.252 92.42 251.892 91.0762 248.533C90.2187 246.526 89.1134 244.635 87.7862 242.903C86.4812 241.094 84.6033 239.78 82.4574 239.172C81.0833 238.802 79.6633 238.631 78.2406 238.663C75.9952 238.708 73.7632 239.019 71.5911 239.589C69.8766 240.03 68.2547 240.725 66.5866 241.304L65.4513 241.675C64.038 242.022 63.5051 241.883 63.0185 241.188C62.9027 241.026 62.7869 240.864 62.6942 240.702C62.4393 240.122 62.9027 239.474 63.8526 239.01C66.8441 237.526 70.0366 236.488 73.3288 235.929C76.0061 235.385 78.7571 235.307 81.4611 235.697L81.4379 235.836Z" fill="#009F57"/>
</svg>
