<svg width="282" height="242" viewBox="0 0 282 242" fill="none" xmlns="http://www.w3.org/2000/svg">
<path d="M15.8183 40.1902C25.6049 25.6535 39.2424 14.1259 55.2056 6.89628C61.0128 4.30749 67.1237 2.46253 73.3933 1.40522C95.438 -2.4391 118.13 1.80631 137.293 13.3604C145.727 18.3835 153.234 24.8176 159.489 32.3822C167.712 41.9569 173.181 53.5842 175.314 66.0236C176.009 69.8697 174.341 69.5453 172.116 66.765C170.746 64.9904 169.572 63.0715 168.618 61.0423C167.045 58.4511 165.697 55.7305 164.587 52.91C159.722 42.1151 152.418 32.5975 143.248 25.1071C133.925 17.5312 123.156 11.934 111.599 8.65713C109.858 8.12368 108.086 7.69811 106.293 7.38283C104.509 7.08163 102.725 6.54875 100.895 6.40973C97.2154 5.93457 93.5065 5.72551 89.7969 5.78417C82.3443 5.83751 74.9273 6.81815 67.7169 8.70346C63.7907 9.72838 59.9611 11.0928 56.2714 12.7812C54.4226 13.6346 52.6206 14.5859 50.873 15.631L48.1854 17.137L45.6136 18.8283C38.6964 23.3269 32.4553 28.7878 27.0784 35.0466C23.8093 38.9084 20.8499 43.0221 18.2278 47.3494C15.7837 51.741 13.6919 56.3197 11.9722 61.0423C6.50762 75.4772 5.07398 91.127 7.82495 106.315C10.1425 117.823 15.0029 128.668 22.0507 138.056C22.769 139.099 23.5799 140.072 24.3676 141.045C25.1554 142.018 25.9663 143.014 26.8467 143.964C33.2182 151.077 35.5119 153.046 36.1143 155.711C36.2839 156.286 36.4002 156.875 36.4619 157.472C36.4619 158.283 35.4888 158.213 33.8206 157.472C32.7631 156.928 31.7415 156.316 30.7623 155.641C29.627 154.784 28.4454 153.718 26.9626 152.467C18.5229 144.679 11.834 135.186 7.3384 124.618C5.04495 119.197 3.29108 113.563 2.1022 107.797C0.974074 101.964 0.400016 96.0375 0.387695 90.0962C0.475938 81.252 1.83359 72.4662 4.4191 64.0079C7.0668 55.5915 10.8554 47.5777 15.6792 40.1902H15.8183Z" fill="#231F20"/>
<path d="M77.4481 180.664C72.4905 185.016 66.7937 188.445 60.6274 190.789C58.4646 191.727 56.2526 192.547 54.0011 193.245C52.2634 193.801 50.4794 194.195 48.7185 194.612L46.0541 195.168L44.7103 195.4L43.0421 195.701C40.2155 196.165 37.4584 196.535 34.9793 196.697C32.5002 196.86 29.2566 197.392 29.2334 196.512C30.5077 195.052 31.9673 193.384 33.1026 191.878L34.7476 189.839L35.8134 187.986C36.1766 187.413 36.4868 186.808 36.7402 186.179L37.2267 185.02C37.7905 183.448 38.2396 181.838 38.5705 180.201C39.4741 175.984 39.5204 171.605 40.2619 167.273C40.4704 165.952 42.0227 166.068 43.5519 167.273C44.4651 168.049 45.1794 169.032 45.6349 170.14C46.0903 171.249 46.2738 172.45 46.17 173.644C45.8056 177.41 45.0286 181.123 43.8531 184.719C43.5287 185.623 43.2043 186.549 42.8104 187.43L42.2776 188.611C42.059 188.769 41.8501 188.939 41.652 189.121L41.3045 189.422C41.3045 189.422 41.3045 189.422 41.3045 189.561C41.3045 189.7 41.4666 189.724 41.652 189.816C41.9955 189.891 42.3511 189.891 42.6946 189.816H43.0421H43.5519L44.5713 189.608L46.587 189.144C49.2514 188.472 51.8927 187.615 54.4876 186.827C60.1865 184.992 65.5644 182.279 70.4279 178.788C71.1709 178.268 71.8755 177.695 72.5363 177.073C73.2082 176.448 73.9496 175.892 74.552 175.243L76.8689 172.578L77.5871 171.768C77.5871 171.768 77.5871 171.629 77.7725 171.605H78.0042H78.5139L80.5064 171.999L82.9392 172.439C83.6574 172.439 84.3525 172.694 85.0707 172.787C86.484 173.019 87.8974 173.181 89.3107 173.343C92.0932 173.688 94.894 173.866 97.6978 173.876C102.037 173.679 106.346 173.042 110.557 171.976L113.314 171.258C116.743 170.424 117.948 170.47 119.083 171.837C119.372 172.122 119.636 172.432 119.871 172.764C120.566 173.853 119.407 175.312 116.789 176.309C108.622 179.199 99.9414 180.351 91.3032 179.691C88.0478 179.517 84.8059 179.145 81.5954 178.579L80.4833 178.394H80.2516C80.1126 178.394 79.8577 178.278 79.904 178.394L79.487 178.88C78.9362 179.554 78.3234 180.175 77.6566 180.734L77.4481 180.664Z" fill="#231F20"/>
<path d="M183.213 81.4539C177.584 83.1218 172.147 85.3818 166.995 88.1961C161.87 91.0959 157.077 94.5453 152.699 98.4831C148.353 102.509 144.516 107.053 141.277 112.014C133.334 124.251 129.213 138.575 129.438 153.162C129.579 168.56 134.798 183.482 144.287 195.61C153.776 207.738 167.003 216.395 181.916 220.236C188.561 221.922 195.404 222.701 202.258 222.553C203.973 222.553 205.687 222.553 207.378 222.322C209.07 222.09 210.807 222.113 212.499 221.789L215.047 221.395L216.993 221.094L217.99 220.955H218.476C218.615 220.955 218.708 221.186 218.824 221.302L221.141 223.92C221.691 224.501 222.287 225.036 222.925 225.519C227.526 229.08 232.926 231.466 238.657 232.47C241.563 233.03 244.505 233.394 247.461 233.558H248.874H251.376L251.26 233.373C250.933 232.928 250.631 232.463 250.357 231.983L249.963 231.218L249.546 230.384C249.361 230.037 249.222 229.689 249.059 229.365C247.8 226.608 246.957 223.68 246.557 220.676C246.256 218.012 246.557 216.691 247.16 216.483C247.762 216.274 248.295 217.155 249.106 218.8C249.917 220.445 251.006 222.6 252.581 225.079C252.975 225.704 253.392 226.33 253.855 227.002L254.55 227.998L254.921 228.508L255.593 229.504C257.447 232.284 260.435 235.806 263.146 239.397C262.451 239.536 261.432 239.629 260.482 239.745L257.586 240.069C256.566 240.069 255.547 240.277 254.481 240.324H251.098H249.407H247.831H246.024C244.819 240.208 243.707 240.138 242.387 239.953C239.951 239.662 237.536 239.214 235.158 238.609C230.203 237.442 225.496 235.402 221.257 232.585C220.164 231.893 219.127 231.118 218.152 230.268C217.641 229.865 217.16 229.424 216.715 228.948L216.044 228.206L212.707 228.67C210.39 228.971 207.934 229.087 205.548 229.272C203.162 229.458 200.775 229.272 198.366 229.272C188.716 228.921 179.206 226.85 170.285 223.156C161.364 219.423 153.258 213.984 146.421 207.146C142.317 202.87 138.69 198.163 135.601 193.105C132.479 188.14 129.907 182.85 127.932 177.327C123.959 166.201 122.619 154.305 124.016 142.574C124.821 136.234 126.376 130.011 128.65 124.039C130.857 118.001 133.84 112.277 137.524 107.009C139.342 104.369 141.314 101.839 143.432 99.433C145.627 97.0779 147.947 94.8427 150.383 92.7372C155.188 88.4918 160.494 84.8503 166.184 81.8941C180.157 74.5267 195.946 71.3109 211.688 72.6265C214.644 72.8619 217.584 73.2719 220.492 73.8544C221.955 74.1276 223.402 74.4834 224.825 74.9202C226.261 75.3373 227.721 75.6153 229.111 76.1482C231.928 77.1222 234.682 78.2673 237.359 79.5772C238.703 80.2259 240.047 80.8515 241.367 81.5466L245.167 83.8635L247.067 85.0219L248.874 86.3425L252.442 88.9838L255.778 91.9031C256.905 92.8566 257.973 93.878 258.976 94.9614L262.034 98.1124C263.007 99.2245 263.888 100.429 264.814 101.565C272.311 111.039 277.456 122.155 279.828 134.001C281.573 142.963 281.628 152.173 279.99 161.155C279.275 165.103 278.213 168.979 276.816 172.74C275.033 177.778 272.502 182.518 269.309 186.803C267.939 188.822 266.082 190.464 263.911 191.576C263.222 191.943 262.5 192.245 261.756 192.48C260.829 192.48 261.154 191.368 262.358 189.074C263.563 186.78 265.602 183.305 267.873 178.741C274.788 164.88 276.813 149.088 273.619 133.932C270.35 118.48 261.937 104.595 249.754 94.5444C245.262 90.7779 240.301 87.6083 234.996 85.1146C232.354 83.8751 229.638 82.7995 226.863 81.8941C225.473 81.4539 224.037 81.1295 222.624 80.7356L220.492 80.0869C219.774 79.9247 219.032 79.8321 218.314 79.693C206.642 77.5626 194.633 78.2135 183.259 81.5929L183.213 81.4539Z" fill="#231F20"/>
<path d="M207.564 117.228C207.123 116.868 206.611 116.604 206.062 116.454C205.512 116.303 204.938 116.269 204.374 116.354C203.811 116.44 203.272 116.642 202.792 116.948C202.312 117.254 201.901 117.657 201.586 118.132C201.424 130.133 210.692 149.271 215.487 160.276C217.967 159.906 217.804 158.307 217.804 156.268C217.642 148.669 209.603 118.966 207.564 117.228Z" fill="#231F20"/>
<path d="M183.005 124.132C182.051 123.521 180.895 123.312 179.788 123.55C178.681 123.789 177.713 124.456 177.097 125.406C178.765 136.782 188.195 155.897 193.639 166.578C196.095 166.068 195.956 164.469 195.701 162.43C195.006 154.854 185.299 125.476 183.005 124.132Z" fill="#231F20"/>
<path d="M102.655 80.4353C105.794 77.2559 107.594 72.9934 107.683 68.5264C107.693 66.8926 107.451 65.2671 106.965 63.7073C105.621 58.2394 99.5508 54.4396 93.2257 55.0652C90.415 55.25 87.6933 56.1254 85.3019 57.6138C82.2739 59.5489 79.8119 62.2507 78.1658 65.4449C77.5866 66.418 76.8683 66.0937 76.5208 64.8194C76.2938 63.8352 76.284 62.8134 76.492 61.8251C76.7001 60.8368 77.1211 59.9057 77.7256 59.0966C80.4008 55.3863 84.2313 52.6683 88.6169 51.3685C93.0026 50.0687 97.6955 50.2607 101.96 51.9142C104.6 52.9755 106.973 54.605 108.911 56.687C110.839 58.83 112.186 61.4299 112.827 64.2401C114.106 70.186 113.132 76.3951 110.093 81.6632C108.11 84.7603 105.458 87.3731 102.331 89.309C97.929 92.2283 93.2025 94.105 89.3564 96.8621C87.9064 97.8565 86.6106 99.0587 85.5104 100.43C84.5089 101.796 83.6837 103.283 83.0545 104.855C82.7069 105.62 82.4289 106.408 81.9887 107.172C80.3437 110.045 79.2547 110.625 77.3549 110.161C76.9288 110.091 76.51 109.983 76.1038 109.837C74.8063 109.258 74.6209 107.52 75.3624 105.527C75.9184 103.975 76.405 102.446 77.1927 100.731C78.041 98.7695 79.2074 96.9611 80.6449 95.3793C83.4637 92.5101 86.7162 90.102 90.2832 88.2433C95.1024 85.5556 99.5508 83.4009 102.447 80.2963L102.655 80.4353Z" fill="#231F20"/>
<path d="M75.0845 123.785V124.225C74.9646 124.796 74.7208 125.333 74.3704 125.799C74.0201 126.266 73.5717 126.649 73.0568 126.923C72.542 127.197 71.9733 127.355 71.3909 127.385C70.8085 127.415 70.2265 127.317 69.6861 127.098C68.9192 126.929 68.2123 126.556 67.6401 126.018C67.0679 125.48 66.6517 124.798 66.4357 124.043C66.2196 123.288 66.2117 122.488 66.4127 121.729C66.6138 120.97 67.0163 120.279 67.5777 119.73C70.7982 116.185 75.6637 119.568 75.0845 123.785Z" fill="#231F20"/>
<path d="M203.673 176.355C203.835 178.672 202.537 180.688 198.691 180.155C197.925 180.045 197.202 179.732 196.597 179.25C195.992 178.768 195.526 178.133 195.248 177.411C194.969 176.689 194.888 175.906 195.013 175.142C195.138 174.378 195.464 173.661 195.957 173.065C199.363 168.408 203.394 172.694 203.673 176.355Z" fill="#231F20"/>
<path d="M224.617 169.565C224.617 171.882 222.948 173.713 219.195 172.716C218.441 172.516 217.754 172.116 217.207 171.559C216.66 171.002 216.273 170.309 216.086 169.551C215.899 168.793 215.919 167.999 216.144 167.252C216.369 166.504 216.79 165.831 217.365 165.302C221.303 161.132 224.802 165.882 224.617 169.565Z" fill="#231F20"/>
<path d="M166.509 220.052C173.401 223.557 180.807 225.942 188.45 227.118C191.244 227.516 194.061 227.74 196.883 227.79H200.637C201.888 227.79 203.116 227.79 204.367 227.628L208.12 227.419C209.371 227.419 210.599 227.072 211.827 226.91L216.09 226.284C216.67 226.006 216.901 226.678 217.295 226.979L218.152 227.883L219.403 229.203C220.284 230.038 221.28 230.756 222.207 231.52C223.134 232.285 224.269 232.841 225.312 233.513C229.196 235.572 233.404 236.952 237.753 237.591C243.359 238.339 249.026 238.51 254.667 238.1C256.381 238.1 256.312 238.795 254.898 239.769C252.552 241.107 249.883 241.772 247.183 241.692C241.057 241.737 234.971 240.702 229.204 238.633C226.273 237.569 223.492 236.128 220.933 234.347C219.678 233.413 218.479 232.407 217.341 231.335L215.743 229.597V229.458C215.743 229.458 215.557 229.458 215.534 229.458C208.303 230.668 200.962 231.095 193.64 230.733C185.539 230.074 177.593 228.134 170.1 224.987C168.941 224.477 167.783 224.014 166.671 223.504L163.381 221.72C161.179 220.558 159.059 219.25 157.032 217.804C150.892 213.474 145.426 208.259 140.814 202.327C137.269 197.786 134.21 192.886 131.686 187.708C131.13 186.572 130.597 185.391 130.041 184.279C128.396 179.83 128.164 178.301 128.627 177.12C128.699 176.843 128.808 176.578 128.952 176.332C129.415 175.753 130.527 177.374 131.778 180.502C135.578 190.042 141.161 198.77 148.228 206.22C153.56 211.85 159.832 216.507 166.763 219.982L166.509 220.052Z" fill="#231F20"/>
<path d="M82.1501 180.317L80.6904 180.039C80.6904 180.039 80.5514 180.039 80.5282 180.039L78.4662 182.171C76.7739 183.67 74.9776 185.048 73.091 186.295C71.7476 187.226 70.3555 188.084 68.9205 188.867C63.8517 191.435 58.5132 193.432 53.0034 194.821C50.5707 195.447 48.1611 196.095 45.7284 196.651C42.6449 197.518 39.4743 198.039 36.2754 198.204C34.2829 198.204 36.5071 195.029 39.9361 194.427C46.1938 193.366 52.3831 191.935 58.4713 190.141C62.1648 188.96 65.7038 187.342 69.0132 185.322C69.9473 184.821 70.8453 184.256 71.7008 183.63C72.6056 183.081 73.4655 182.461 74.2726 181.777C75.0603 181.082 75.9408 180.479 76.5895 179.738L79.1613 177.05L79.4393 176.772H79.81L80.5977 176.911L81.7794 177.12L83.7487 177.444C85.0694 177.653 86.39 177.861 87.7106 178.023C91.689 178.626 95.7131 178.875 99.7353 178.765C102.762 178.572 105.751 177.996 108.632 177.05L110.486 176.378C112.803 175.568 113.637 175.429 114.448 176.008C114.646 176.12 114.832 176.252 115.004 176.402C115.467 176.888 114.679 177.792 112.942 178.719C107.429 181.176 101.402 182.257 95.3796 181.869C90.9368 181.635 86.5116 181.14 82.1269 180.387L82.1501 180.317Z" fill="#231F20"/>
<path d="M199.411 45.5876C199.458 45.1055 199.694 44.6618 200.067 44.3534C200.441 44.0451 200.921 43.8974 201.403 43.9426C206.385 44.4059 198.901 50.8469 199.411 45.5876Z" stroke="#231F20" stroke-width="1.39014" stroke-miterlimit="10"/>
<path d="M98.6704 210.113C98.7174 209.631 98.9534 209.187 99.3269 208.879C99.7003 208.571 100.181 208.423 100.663 208.468C105.644 208.931 98.1839 215.349 98.6704 210.113Z" stroke="#231F20" stroke-width="1.39014" stroke-miterlimit="10"/>
<path d="M248.411 36.9918C248.602 37.066 248.776 37.1771 248.923 37.3186C249.07 37.4602 249.188 37.6295 249.27 37.8168C249.352 38.004 249.396 38.2056 249.4 38.41C249.403 38.6143 249.367 38.8173 249.292 39.0075C247.763 42.9694 244.264 35.3931 248.411 36.9918Z" fill="#231F20"/>
</svg>
