<svg width="48" height="49" viewBox="0 0 48 49" fill="none" xmlns="http://www.w3.org/2000/svg">
<rect y="0.944214" width="48" height="48" rx="8.93023" fill="url(#paint0_linear_76_1203)"/>
<path d="M24.0001 16.1533C24.0016 15.651 23.9026 15.1535 23.709 14.69C23.5154 14.2265 23.2311 13.8065 22.8727 13.4545C22.5144 13.1025 22.0893 12.8257 21.6224 12.6404C21.1555 12.4552 20.6563 12.3651 20.1542 12.3756C19.652 12.386 19.157 12.4968 18.6982 12.7014C18.2395 12.906 17.8263 13.2002 17.4829 13.5668C17.1396 13.9334 16.873 14.365 16.6989 14.8361C16.5247 15.3073 16.4466 15.8085 16.469 16.3103C15.7308 16.5001 15.0455 16.8554 14.465 17.3492C13.8845 17.8431 13.4239 18.4626 13.1183 19.1608C12.8126 19.859 12.6698 20.6176 12.7008 21.3791C12.7317 22.1407 12.9355 22.8852 13.2968 23.5563C12.6616 24.0724 12.1621 24.7358 11.8417 25.4889C11.5214 26.2421 11.3899 27.062 11.4587 27.8776C11.5276 28.6931 11.7946 29.4794 12.2366 30.1682C12.6787 30.857 13.2823 31.4273 13.995 31.8296C13.907 32.5106 13.9595 33.2023 14.1494 33.8622C14.3392 34.522 14.6622 35.136 15.0986 35.6661C15.535 36.1962 16.0754 36.6312 16.6865 36.9443C17.2976 37.2573 17.9664 37.4418 18.6516 37.4862C19.3367 37.5307 20.0237 37.4342 20.6702 37.2028C21.3166 36.9713 21.9087 36.6098 22.4099 36.1405C22.9112 35.6713 23.3109 35.1042 23.5844 34.4745C23.8579 33.8447 23.9994 33.1655 24.0001 32.4789V16.1533Z" stroke="#FFF2D5" stroke-width="2.7907" stroke-linecap="round" stroke-linejoin="round"/>
<path d="M20.2324 26.1999C21.2867 25.829 22.2074 25.1538 22.878 24.2597C23.5486 23.3655 23.939 22.2926 23.9999 21.1766" stroke="#FFF2D5" stroke-width="2.7907" stroke-linecap="round" stroke-linejoin="round"/>
<path d="M16.4688 16.3104C16.4936 16.9179 16.6651 17.5103 16.9686 18.0372" stroke="#FFF2D5" stroke-width="2.7907" stroke-linecap="round" stroke-linejoin="round"/>
<path d="M13.2967 23.5577C13.5264 23.3706 13.7722 23.2042 14.0313 23.0604" stroke="#FFF2D5" stroke-width="2.7907" stroke-linecap="round" stroke-linejoin="round"/>
<path d="M16.4651 32.4788C15.5996 32.4792 14.7487 32.256 13.9949 31.8308" stroke="#FFF2D5" stroke-width="2.7907" stroke-linecap="round" stroke-linejoin="round"/>
<path d="M24 26.2H29.0233" stroke="#FFF2D5" stroke-width="2.7907" stroke-linecap="round" stroke-linejoin="round"/>
<path d="M24 32.4791H31.5349C32.201 32.4791 32.8399 32.7437 33.3109 33.2148C33.7819 33.6858 34.0465 34.3246 34.0465 34.9908V36.2466" stroke="#FFF2D5" stroke-width="2.7907" stroke-linecap="round" stroke-linejoin="round"/>
<path d="M24 19.921H34.0465" stroke="#FFF2D5" stroke-width="2.7907" stroke-linecap="round" stroke-linejoin="round"/>
<path d="M29.0232 19.9209V16.1535C29.0232 15.4873 29.2878 14.8485 29.7589 14.3775C30.2299 13.9065 30.8687 13.6418 31.5349 13.6418" stroke="#FFF2D5" stroke-width="2.7907" stroke-linecap="round" stroke-linejoin="round"/>
<path d="M29.0232 26.8281C29.37 26.8281 29.6511 26.547 29.6511 26.2002C29.6511 25.8534 29.37 25.5723 29.0232 25.5723C28.6764 25.5723 28.3953 25.8534 28.3953 26.2002C28.3953 26.547 28.6764 26.8281 29.0232 26.8281Z" stroke="#FFF2D5" stroke-width="2.7907" stroke-linecap="round" stroke-linejoin="round"/>
<path d="M31.5349 14.27C31.8817 14.27 32.1628 13.9889 32.1628 13.6421C32.1628 13.2953 31.8817 13.0142 31.5349 13.0142C31.1881 13.0142 30.907 13.2953 30.907 13.6421C30.907 13.9889 31.1881 14.27 31.5349 14.27Z" stroke="#FFF2D5" stroke-width="2.7907" stroke-linecap="round" stroke-linejoin="round"/>
<path d="M34.0464 36.8743C34.3932 36.8743 34.6743 36.5932 34.6743 36.2464C34.6743 35.8997 34.3932 35.6185 34.0464 35.6185C33.6996 35.6185 33.4185 35.8997 33.4185 36.2464C33.4185 36.5932 33.6996 36.8743 34.0464 36.8743Z" stroke="#FFF2D5" stroke-width="2.7907" stroke-linecap="round" stroke-linejoin="round"/>
<path d="M34.0464 20.5489C34.3932 20.5489 34.6743 20.2678 34.6743 19.921C34.6743 19.5742 34.3932 19.2931 34.0464 19.2931C33.6996 19.2931 33.4185 19.5742 33.4185 19.921C33.4185 20.2678 33.6996 20.5489 34.0464 20.5489Z" stroke="#FFF2D5" stroke-width="2.7907" stroke-linecap="round" stroke-linejoin="round"/>
<defs>
<linearGradient id="paint0_linear_76_1203" x1="5.58138" y1="4.99434" x2="30.6977" y2="49.0874" gradientUnits="userSpaceOnUse">
<stop stop-color="#E8710A"/>
<stop offset="1" stop-color="#C4570A"/>
</linearGradient>
</defs>
</svg>
