<svg width="198" height="260" viewBox="0 0 198 260" fill="none" xmlns="http://www.w3.org/2000/svg">
<path d="M0.720946 117.557C0.738328 117.339 0.799181 117.126 0.899934 116.932C1.00069 116.737 1.13931 116.565 1.30766 116.424C1.47601 116.284 1.67069 116.179 1.88028 116.115C2.08986 116.051 2.31012 116.029 2.52813 116.052C7.09242 116.469 0.257566 122.33 0.720946 117.557Z" stroke="#231F20" stroke-width="1.15845" stroke-miterlimit="10"/>
<path d="M73.4711 115.379C67.9106 115.379 62.35 115.379 56.7431 114.847C50.968 114.494 45.2689 113.348 39.8065 111.441C38.9466 111.131 38.1168 110.743 37.3275 110.282C36.3755 109.726 35.4827 109.074 34.663 108.336C34.029 107.511 33.5715 106.565 33.3192 105.556C33.1339 104.699 33.0644 104.166 32.9485 103.494C32.7632 102.219 32.6473 100.992 32.5315 99.7636C31.3962 85.422 31.095 71.3584 30.2841 57.457C29.9597 51.2245 29.4732 44.9689 28.8708 38.9217C28.083 30.9979 26.9941 23.1436 26.6929 15.1967C26.577 12.7407 27.3648 12.8798 28.6854 14.826C29.5625 16.1229 30.3372 17.4863 31.0023 18.9037C31.841 20.8634 32.44 22.9171 32.7863 25.0203C35.0079 41.1452 36.1688 57.3984 36.2617 73.6753C36.2617 78.5871 36.6092 83.5916 36.9568 88.5961C37.3043 93.6006 37.675 98.6978 38.3237 103.378L38.4859 104.235C38.4859 104.374 38.4859 104.536 38.6944 104.606C38.903 104.675 39.1578 105.023 39.598 105.324C40.0382 105.625 40.5248 105.834 40.9882 106.135C41.4816 106.414 41.9924 106.662 42.5173 106.876C43.0366 107.136 43.5797 107.346 44.1391 107.502C45.2856 107.869 46.4541 108.163 47.6377 108.382C48.7961 108.66 49.9546 108.846 51.2289 109.031C56.1749 109.702 61.1585 110.058 66.1497 110.097C72.8687 110.213 79.6341 110.097 86.3763 109.61C96.5938 109.008 106.858 108.081 116.983 106.807C124.837 105.811 132.483 104.49 140.152 103.146L145.249 102.289C147.534 101.817 149.872 101.661 152.199 101.826C153.344 101.855 154.455 102.217 155.397 102.868C155.751 103.082 156.078 103.339 156.37 103.633C156.671 104.073 156.185 104.513 155.119 104.977C153.449 105.657 151.73 106.207 149.975 106.622C136.236 109.356 121.547 111.557 106.719 113.109C95.6902 114.267 84.5459 115.032 73.3553 115.287L73.4711 115.379Z" fill="#231F20"/>
<path d="M155.561 66.4934L155.792 56.7625C155.792 55.5808 155.792 54.4455 155.792 53.2176C155.792 49.0472 156.001 44.8536 155.955 40.66C155.955 38.8065 155.723 36.9529 155.63 35.1226C155.337 32.7792 155.251 30.4145 155.375 28.056C155.375 27.3146 156.302 27.3146 157.252 27.8475C157.822 28.1498 158.322 28.5676 158.721 29.0743C159.12 29.5809 159.409 30.1653 159.569 30.79C160.522 35.5853 160.841 40.4849 160.519 45.3633C160.357 48.3058 160.797 51.3177 160.89 54.3065C160.982 57.2953 161.075 60.8865 161.052 64.1765V70.2468C161.052 73.3051 161.052 76.3866 161.052 79.5144C161.052 81.8313 161.515 84.1482 161.677 86.6042C161.677 87.137 161.677 87.6467 161.677 88.1796C161.677 90.1722 161.029 90.8209 159.615 91.0526C159.303 91.1272 158.985 91.1814 158.665 91.2148C157.6 91.2148 156.766 90.3807 156.348 89.0601C155.624 84.8678 155.291 80.6174 155.352 76.3634C155.352 73.0966 155.352 69.8298 155.352 66.5861L155.561 66.4934Z" fill="#231F20"/>
<path d="M106.139 5.92944C100.115 6.2538 94.0755 6.63223 88.0207 7.06472C85.7038 7.2269 83.6186 7.55127 81.3944 7.69028C73.5864 8.24634 65.7553 8.61704 57.8778 8.68655C54.4025 8.68655 50.9271 8.68655 47.4054 8.68655C45.0885 8.68655 42.9338 8.68655 40.6864 8.38535C38.4423 8.14427 36.2294 7.67062 34.0832 6.97204C32.7394 6.53183 33.087 6.02211 34.3381 5.60507C36.2615 5.0113 38.2571 4.68389 40.2694 4.63197C49.0041 5.09535 57.9242 4.63197 66.9369 4.28444C72.3353 4.14542 77.9422 3.35768 83.4796 2.80162C89.5499 2.22239 95.6665 1.66634 101.783 1.22613C105.56 0.948098 109.336 0.762746 113.113 0.577394C118.836 0.299366 124.697 0.276198 130.327 0.322536C134.753 0.322536 139.132 0.322535 143.58 0.484718C144.553 0.484718 145.503 0.600564 146.499 0.716409C150.137 1.17979 151.133 1.85169 151.712 3.28817C151.849 3.60835 151.95 3.94241 152.014 4.28444C152.014 5.37338 150.531 5.97577 147.982 5.85993C140.36 5.60507 132.413 5.30388 124.327 5.37338C118.303 5.37338 112.256 5.65141 106.185 6.06845L106.139 5.92944Z" fill="#231F20"/>
<path d="M133.711 42.8835C128.706 48.9769 123.957 55.3716 119.462 61.9516C117.817 64.2685 116.404 66.8866 114.828 69.3193L110.194 76.6176L107.877 80.3246L104.24 86.1864C103.508 87.2341 102.529 88.0856 101.39 88.6655C101.286 88.7529 101.161 88.8134 101.028 88.8416C100.895 88.8699 100.757 88.8651 100.626 88.8276C100.357 88.7454 100.1 88.6286 99.861 88.4801C99.3342 88.1744 98.8445 87.809 98.4014 87.3911C97.2824 86.1719 96.3317 84.8082 95.5748 83.3366C95.1345 82.572 94.6943 81.8074 94.2773 81.0197L93.3737 79.3283C91.2207 75.3274 88.83 71.4589 86.2145 67.7438C84.5463 65.4269 82.8086 63.11 80.9783 61.0248C79.3119 58.9505 77.3801 57.1043 75.2324 55.5337C74.0276 54.8387 74.2361 53.6339 76.2981 53.2168C77.8412 53.056 79.4007 53.2408 80.8635 53.7577C82.3262 54.2747 83.6555 55.1109 84.7548 56.2056C89.2273 60.5962 93.1203 65.5404 96.3393 70.918C97.1502 72.1923 97.938 73.5129 98.6562 74.8104L99.8147 76.7566C99.8147 76.9883 99.8147 76.9419 99.8147 76.9651V77.1968C99.8803 77.5031 99.9655 77.8049 100.07 78.1004C100.07 78.1004 100.232 78.6564 100.324 78.5406L100.626 78.3784L100.811 78.2162C100.969 78.0727 101.116 77.9179 101.251 77.7528L101.483 77.4516L102.108 76.3859C103.012 74.8799 103.892 73.3507 104.796 71.7521C106.58 68.7169 108.341 65.6354 110.264 62.6698C114.774 55.7963 119.501 49.085 124.443 42.5359C127.502 38.5277 130.653 34.589 133.943 30.7661C138.985 24.9283 144.402 19.4255 150.161 14.2929C154.522 10.1184 159.341 6.44985 164.526 3.35712C165.704 2.64431 166.945 2.03945 168.233 1.54994C173.168 -0.280413 175.183 0.275643 176.388 2.12916C176.707 2.53433 176.986 2.96876 177.222 3.42663C177.359 3.83949 177.364 4.28481 177.235 4.70026C177.106 5.11572 176.851 5.48049 176.504 5.74353C175.534 6.56165 174.449 7.23297 173.284 7.73607C164.48 12.2781 156.487 18.2434 149.628 25.3909C144.045 30.9658 138.799 36.8689 133.919 43.0688L133.711 42.8835Z" fill="#231F20"/>
<path d="M68.838 117.927C63.7162 117.864 58.6025 117.501 53.5233 116.838C48.3255 116.188 43.2328 114.872 38.3707 112.923C37.4903 112.483 36.5636 112.135 35.7295 111.625L34.5015 110.745L33.8296 110.328C33.5255 110.102 33.2528 109.838 33.0187 109.54C32.272 108.587 31.7493 107.479 31.4895 106.296C31.2208 105.351 31.0042 104.392 30.8408 103.423C29.9489 96.9378 29.3844 90.4113 29.1495 83.8688L28.1995 64.4069C27.9215 58.6841 27.5508 52.8224 27.0411 47.2618C26.3692 39.9635 25.4656 32.7116 24.9791 25.4366C24.8169 23.1197 25.3729 23.3514 26.3692 25.1585C27.0326 26.3849 27.6131 27.6543 28.1069 28.9583C28.7403 30.8175 29.1904 32.7342 29.4507 34.681C31.3145 49.6184 32.3586 64.6468 32.5785 79.6984C32.5785 84.1932 32.9724 88.7807 33.3894 93.3681C33.5748 95.685 33.8296 98.0019 34.154 100.319C34.403 102.465 34.8529 104.582 35.4978 106.644C35.5762 106.836 35.6691 107.022 35.7758 107.2C35.8266 107.306 35.9071 107.394 36.0075 107.455L37.444 108.382C38.4403 108.984 39.506 109.54 40.5718 110.073C41.6822 110.587 42.8281 111.021 44.0008 111.37C45.1726 111.75 46.3636 112.067 47.5688 112.32C52.4469 113.391 57.4078 114.043 62.397 114.267C68.5712 114.589 74.758 114.589 80.9322 114.267C90.3389 113.826 99.7918 112.992 109.083 111.787C116.311 110.861 123.355 109.586 130.491 108.451L135.125 107.687C141.033 106.783 143.095 107.293 144.392 108.011C144.704 108.125 145.007 108.264 145.296 108.428C145.805 109.054 143.558 109.517 139.318 110.49C126.691 112.807 113.184 114.938 99.537 116.305C89.3448 117.458 79.0952 118.031 68.838 118.02V117.927Z" fill="#231F20"/>
<path d="M75.7892 256.548C70.2518 256.548 64.668 256.548 59.0843 256.016C53.302 255.661 47.5956 254.515 42.1246 252.61C41.0405 252.19 39.9941 251.678 38.9968 251.081L37.2823 249.737C36.9241 249.503 36.6485 249.163 36.4945 248.764C36.2541 248.406 36.0668 248.016 35.9384 247.605C35.7788 247.226 35.6623 246.829 35.5909 246.424C35.5909 246.146 35.4751 245.821 35.4287 245.566L35.197 243.991C35.058 242.948 34.9422 241.952 34.8727 240.933C33.8301 226.707 33.5289 212.713 32.718 198.626C32.3936 192.393 31.907 186.138 31.3046 180.091C30.4937 172.167 29.4048 164.313 29.1268 156.366C29.0109 153.91 29.7755 154.049 31.0961 155.995C31.9658 157.296 32.7401 158.659 33.413 160.073C34.2517 162.032 34.8507 164.086 35.197 166.189C37.3832 182.371 38.5132 198.678 38.5797 215.006C38.5797 219.918 38.9273 224.923 39.2748 229.927C39.6223 234.932 39.9699 240.029 40.6186 244.709C40.8735 246.099 40.6186 245.636 41.6149 246.447C42.596 247.111 43.6351 247.684 44.7195 248.161C47.1385 249.131 49.6674 249.8 52.2494 250.154C57.6168 250.977 63.0377 251.403 68.4678 251.428C75.1868 251.544 81.9521 251.428 88.6943 250.942C98.9118 250.339 109.199 249.412 119.301 248.138C127.178 247.142 134.824 245.821 142.47 244.477L147.567 243.62C149.852 243.148 152.19 242.992 154.517 243.157C155.667 243.198 156.782 243.559 157.738 244.199C158.08 244.421 158.398 244.677 158.688 244.964C159.012 245.404 158.526 245.844 157.437 246.308C155.769 246.992 154.049 247.542 152.293 247.953C138.577 250.687 123.888 252.888 109.037 254.44C98.0082 255.598 86.8871 256.386 75.6965 256.641L75.7892 256.548Z" fill="#231F20"/>
<path d="M157.853 207.8L158.085 198.046C158.085 196.864 158.085 195.729 158.085 194.501C158.085 190.331 158.317 186.137 158.247 181.944C158.247 180.09 158.015 178.26 157.923 176.406C157.632 174.101 157.555 171.774 157.691 169.455C157.691 168.737 158.618 168.714 159.568 169.247C160.137 169.549 160.638 169.967 161.037 170.474C161.436 170.98 161.724 171.565 161.885 172.189C162.849 176.983 163.168 181.884 162.835 186.763C162.672 189.705 163.113 192.717 163.228 195.706C163.344 198.695 163.391 202.286 163.367 205.576V211.53C163.367 214.589 163.367 217.67 163.367 220.798C163.367 223.115 163.808 225.432 163.993 227.888C163.993 228.421 163.993 228.93 163.993 229.463C163.854 231.456 163.344 232.104 161.931 232.336C161.611 232.413 161.286 232.467 160.958 232.498C159.892 232.498 159.058 231.664 158.641 230.344C157.893 226.154 157.56 221.902 157.645 217.647C157.645 214.38 157.645 211.113 157.645 207.87L157.853 207.8Z" fill="#231F20"/>
<path d="M108.456 147.214C102.432 147.539 96.3929 147.917 90.338 148.35C88.0211 148.535 85.9128 148.836 83.7117 148.975C75.9037 149.531 68.0495 149.925 60.1952 149.972C56.6966 149.972 53.2445 149.972 49.6996 149.972C47.3827 149.972 45.228 149.972 42.9806 149.693C40.7462 149.427 38.5427 148.946 36.4006 148.257C35.0568 147.817 35.4043 147.307 36.6786 146.89C38.5944 146.298 40.5822 145.971 42.5867 145.917C51.3214 146.38 60.2415 145.917 69.2542 145.569C74.6758 145.43 80.2595 144.643 85.7969 144.087C91.8904 143.507 97.9838 142.951 104.124 142.511C107.877 142.233 111.677 142.048 115.453 141.862C121.176 141.608 127.038 141.584 132.645 141.608C137.093 141.608 141.472 141.608 145.897 141.77C146.87 141.77 147.844 141.77 148.817 142.001C152.454 142.465 153.45 143.137 154.03 144.573C154.163 144.897 154.271 145.23 154.354 145.569C154.354 146.658 152.871 147.261 150.299 147.145C142.7 146.89 134.73 146.589 126.644 146.658C120.643 146.658 114.573 146.936 108.503 147.353L108.456 147.214Z" fill="#231F20"/>
<path d="M136.028 184.168C131.024 190.262 126.274 196.656 121.779 203.236C120.158 205.553 118.721 208.171 117.146 210.604L112.859 217.068L110.797 220.335L109.778 221.957L108.226 224.691C107.739 225.581 107.197 226.44 106.604 227.263L105.77 228.375C105.642 228.554 105.503 228.724 105.353 228.885L104.936 229.163L104.125 229.742L103.406 230.113C102.642 230.113 102.202 229.742 101.622 229.394C100.227 228.3 99.0949 226.906 98.3092 225.317C97.2897 223.648 96.1545 221.494 95.6911 220.683C93.5467 216.677 91.1557 212.808 88.5319 209.098C86.9093 206.772 85.1693 204.529 83.3188 202.379C81.6384 200.31 79.6995 198.464 77.5497 196.888C76.3449 196.193 76.5535 194.988 78.6155 194.571C80.1587 194.409 81.7187 194.593 83.1817 195.11C84.6447 195.627 85.9739 196.464 87.0722 197.56C91.5447 201.951 95.4377 206.895 98.6567 212.272C99.4676 213.57 100.255 214.867 100.974 216.165L102.109 218.111C102.248 218.343 102.109 218.296 102.109 218.32V218.551C102.153 218.86 102.231 219.163 102.341 219.455C102.341 219.455 102.526 220.011 102.619 219.895L102.92 219.733C103.076 219.612 103.216 219.472 103.337 219.316L103.592 219.038V218.876L103.754 218.598L106.581 213.802C108.457 210.581 110.334 207.337 112.35 204.21C116.775 197.259 121.455 190.586 126.413 184.076C129.502 180.044 132.677 176.113 135.936 172.283C140.934 166.443 146.313 160.939 152.038 155.81C156.408 151.635 161.234 147.966 166.426 144.874C167.6 144.152 168.842 143.547 170.133 143.067C175.045 141.236 177.084 141.792 178.289 143.646C178.6 144.051 178.872 144.486 179.1 144.943C179.24 145.356 179.246 145.802 179.117 146.218C178.988 146.635 178.73 146.999 178.381 147.26C177.42 148.079 176.342 148.75 175.184 149.253C166.528 153.73 158.656 159.583 151.876 166.583C146.3 172.158 141.063 178.062 136.191 184.261L136.028 184.168Z" fill="#231F20"/>
<path d="M74.4234 259.027C63.9974 259.027 53.4091 258.564 43.0758 255.158L41.2454 254.533L39.4614 253.675C38.2368 253.087 37.0595 252.406 35.9397 251.637C35.1686 250.963 34.5858 250.101 34.2484 249.134C33.9825 248.432 33.7657 247.712 33.5996 246.98C32.4248 240.326 31.7203 233.598 31.4912 226.846L30.4486 206.92C30.1474 201.035 29.7304 195.127 29.2207 189.312C28.5256 181.828 27.5989 174.391 27.066 166.931C26.9038 164.614 27.4598 164.799 28.4561 166.653C29.1396 167.908 29.7357 169.208 30.2401 170.545C30.887 172.429 31.3601 174.367 31.6534 176.337C33.5372 191.662 34.6122 207.075 34.8739 222.513C35.0361 227.147 35.3373 231.781 35.8007 236.415C36.0324 238.731 36.3104 241.048 36.6811 243.365C36.8896 244.477 37.0981 245.682 37.3762 246.632C37.5013 247.419 37.811 248.165 38.2798 248.81L38.4883 248.949C42.7035 251.633 47.4428 253.386 52.3897 254.093C57.4609 254.948 62.5864 255.444 67.7276 255.575C74.0759 255.761 80.4474 255.575 86.8189 255.251C96.4803 254.695 106.165 253.722 115.711 252.471C123.125 251.474 130.353 250.154 137.652 248.972L142.471 248.208C148.518 247.258 150.626 247.744 151.97 248.486C152.286 248.633 152.582 248.82 152.851 249.042C153.129 249.366 152.642 249.644 151.599 249.945C150.557 250.246 148.889 250.687 146.711 251.15C133.759 253.467 119.927 255.784 105.933 257.243C95.5536 258.379 85.0812 259.167 74.4929 259.282L74.4234 259.027Z" fill="#231F20"/>
<path d="M190.406 21.9159C190.424 21.6974 190.485 21.4847 190.585 21.2901C190.686 21.0954 190.825 20.9229 190.993 20.7826C191.162 20.6424 191.356 20.5371 191.566 20.4731C191.775 20.4091 191.996 20.3876 192.214 20.4099C196.778 20.8269 189.943 26.7119 190.406 21.9159Z" stroke="#231F20" stroke-width="1.15845" stroke-miterlimit="10"/>
<path d="M193.812 181.876C193.832 181.656 193.895 181.443 193.999 181.248C194.102 181.054 194.243 180.881 194.413 180.741C194.583 180.601 194.779 180.496 194.99 180.433C195.201 180.369 195.423 180.348 195.642 180.37C200.206 180.787 193.371 186.672 193.812 181.876Z" stroke="#231F20" stroke-width="1.15845" stroke-miterlimit="10"/>
<path d="M171.268 49.1867C171.616 49.3311 171.895 49.6047 172.046 49.9502C172.198 50.2958 172.209 50.6864 172.079 51.0403C170.781 54.6546 167.468 47.7271 171.268 49.1867Z" fill="#231F20"/>
</svg>
